<svg width="27" height="26" viewBox="0 0 27 26" fill="none" xmlns="http://www.w3.org/2000/svg">
<g clip-path="url(#clip0_2101_1170)">
<path d="M9.42822 12.6953C9.52979 12.7799 9.64404 12.8519 9.771 12.9111C9.89795 12.9704 10.0376 13 10.1899 13C10.3423 13 10.4862 12.9704 10.6216 12.9111C10.757 12.8519 10.8755 12.7799 10.9771 12.6953L15.2935 8.35352C15.395 8.25195 15.4754 8.1377 15.5347 8.01074C15.5939 7.88379 15.6235 7.74414 15.6235 7.5918C15.6235 7.28711 15.5177 7.02897 15.3062 6.81738C15.0946 6.60579 14.8364 6.5 14.5317 6.5C14.3794 6.5 14.2397 6.52962 14.1128 6.58887C13.9858 6.64811 13.8716 6.72005 13.77 6.80469L10.1899 10.3848L8.79346 8.98828C8.69189 8.88672 8.57764 8.80632 8.45068 8.74707C8.32373 8.68783 8.18408 8.6582 8.03174 8.6582C7.72705 8.6582 7.46891 8.764 7.25732 8.97559C7.04574 9.18717 6.93994 9.44531 6.93994 9.75C6.93994 9.90234 6.96956 10.042 7.02881 10.1689C7.08805 10.2959 7.16846 10.4102 7.27002 10.5117L9.42822 12.6953ZM21.0317 15.1582H19.9399V4.3418H21.0317C21.3364 4.3418 21.5946 4.236 21.8062 4.02441C22.0177 3.81283 22.1235 3.55469 22.1235 3.25C22.1235 2.94531 22.0177 2.68717 21.8062 2.47559C21.5946 2.264 21.3364 2.1582 21.0317 2.1582H1.53174C1.22705 2.1582 0.968913 2.264 0.757324 2.47559C0.545736 2.68717 0.439941 2.94531 0.439941 3.25C0.439941 3.55469 0.545736 3.81283 0.757324 4.02441C0.968913 4.236 1.22705 4.3418 1.53174 4.3418H2.62354V15.1582H1.53174C1.22705 15.1582 0.968913 15.264 0.757324 15.4756C0.545736 15.6872 0.439941 15.9453 0.439941 16.25C0.439941 16.5547 0.545736 16.8128 0.757324 17.0244C0.968913 17.236 1.22705 17.3418 1.53174 17.3418H10.1899V18.5859L5.26416 21.8359C5.11182 21.9206 4.9891 22.0475 4.896 22.2168C4.8029 22.3861 4.75635 22.5638 4.75635 22.75C4.75635 23.0547 4.86214 23.3128 5.07373 23.5244C5.28532 23.736 5.54346 23.8418 5.84814 23.8418C5.84814 23.8418 5.85661 23.8418 5.87354 23.8418C5.99202 23.8418 6.09782 23.8249 6.19092 23.791C6.28402 23.7572 6.37288 23.7064 6.45752 23.6387L10.1899 21.1758V22.75C10.1899 23.0547 10.2957 23.3128 10.5073 23.5244C10.7189 23.736 10.9771 23.8418 11.2817 23.8418C11.5864 23.8418 11.8446 23.736 12.0562 23.5244C12.2677 23.3128 12.3735 23.0547 12.3735 22.75V21.1758L16.106 23.6387C16.1906 23.7064 16.2795 23.7572 16.3726 23.791C16.4657 23.8249 16.5715 23.8418 16.6899 23.8418C16.9946 23.8418 17.2528 23.736 17.4644 23.5244C17.6759 23.3128 17.7817 23.0547 17.7817 22.75C17.7817 22.5638 17.7352 22.3903 17.6421 22.2295C17.549 22.0687 17.4347 21.946 17.2993 21.8613L12.3735 18.6113V17.3418H21.0317C21.3364 17.3418 21.5946 17.236 21.8062 17.0244C22.0177 16.8128 22.1235 16.5547 22.1235 16.25C22.1235 15.9453 22.0177 15.6872 21.8062 15.4756C21.5946 15.264 21.3364 15.1582 21.0317 15.1582ZM17.7817 15.1582H4.78174V4.3418H17.7817V15.1582Z" fill="#5EB9F0"/>
</g>
<defs>
<clipPath id="clip0_2101_1170">
<rect width="26" height="26" fill="white" transform="matrix(1 0 0 -1 0.439941 26)"/>
</clipPath>
</defs>
</svg>
