<svg width="22" height="20" viewBox="0 0 22 20" fill="none" xmlns="http://www.w3.org/2000/svg">
<path d="M12.2383 10.2285C12.8138 9.73763 13.2666 9.14518 13.5967 8.45117C13.9268 7.75716 14.0918 7.01237 14.0918 6.2168C14.0918 5.45508 13.9479 4.7526 13.6602 4.10938C13.3724 3.44922 12.9873 2.8737 12.5049 2.38281C12.0225 1.89193 11.4512 1.5026 10.791 1.21484C10.1309 0.927083 9.42839 0.783203 8.68359 0.783203C7.92188 0.783203 7.2194 0.927083 6.57617 1.21484C5.91602 1.5026 5.34049 1.89193 4.84961 2.38281C4.35872 2.8737 3.9694 3.44922 3.68164 4.10938C3.39388 4.7526 3.25 5.45508 3.25 6.2168C3.25 7.01237 3.41504 7.75716 3.74512 8.45117C4.0752 9.14518 4.52799 9.73763 5.10352 10.2285C4.3418 10.584 3.64779 11.0326 3.02148 11.5742C2.39518 12.1159 1.86198 12.7253 1.42188 13.4023C0.981771 14.0794 0.634766 14.8158 0.380859 15.6113C0.126953 16.4069 0 17.2448 0 18.125C0 18.4297 0.105794 18.6878 0.317383 18.8994C0.528971 19.111 0.787109 19.2168 1.0918 19.2168C1.39648 19.2168 1.65462 19.111 1.86621 18.8994C2.0778 18.6878 2.18359 18.4297 2.18359 18.125C2.18359 17.2279 2.35286 16.3815 2.69141 15.5859C3.02995 14.8073 3.49121 14.1217 4.0752 13.5293C4.65918 12.9368 5.34896 12.4714 6.14453 12.1328C6.9401 11.7943 7.78646 11.625 8.68359 11.625C9.58073 11.625 10.4186 11.7943 11.1973 12.1328C11.9928 12.4714 12.6826 12.9368 13.2666 13.5293C13.8506 14.1217 14.3203 14.8073 14.6758 15.5859C15.0143 16.3815 15.1836 17.2279 15.1836 18.125C15.1836 18.4297 15.2894 18.6878 15.501 18.8994C15.7126 19.111 15.9622 19.2168 16.25 19.2168C16.5547 19.2168 16.8128 19.111 17.0244 18.8994C17.236 18.6878 17.3418 18.4297 17.3418 18.125C17.3418 17.2448 17.2148 16.4069 16.9609 15.6113C16.724 14.8158 16.3812 14.0794 15.9326 13.4023C15.484 12.7253 14.9551 12.1159 14.3457 11.5742C13.7194 11.0495 13.0423 10.6094 12.3145 10.2539L12.2383 10.2285ZM8.68359 9.4668C7.78646 9.4668 7.02051 9.14941 6.38574 8.51465C5.75098 7.87988 5.43359 7.11393 5.43359 6.2168C5.43359 5.31966 5.75098 4.55371 6.38574 3.91895C7.02051 3.28418 7.78646 2.9668 8.68359 2.9668C9.58073 2.9668 10.3467 3.28418 10.9814 3.91895C11.6162 4.55371 11.9336 5.31966 11.9336 6.2168C11.9336 7.11393 11.6162 7.87988 10.9814 8.51465C10.3467 9.14941 9.58073 9.4668 8.68359 9.4668ZM21.3535 6.90234C21.252 6.80078 21.1377 6.72038 21.0107 6.66113C20.8838 6.60189 20.7441 6.57227 20.5918 6.57227C20.4395 6.57227 20.2998 6.60189 20.1729 6.66113C20.0459 6.72038 19.9316 6.80078 19.8301 6.90234L17.6465 9.06055L16.9863 8.375C16.8848 8.27344 16.7705 8.19303 16.6436 8.13379C16.5166 8.07454 16.377 8.04492 16.2246 8.04492C16.0723 8.04492 15.9284 8.07454 15.793 8.13379C15.6576 8.19303 15.5391 8.27344 15.4375 8.375C15.3529 8.47656 15.2809 8.59082 15.2217 8.71777C15.1624 8.84473 15.1328 8.98438 15.1328 9.13672C15.1328 9.28906 15.1624 9.42871 15.2217 9.55566C15.2809 9.68262 15.3529 9.79688 15.4375 9.89844L16.9102 11.3457C16.9948 11.4473 17.1048 11.5277 17.2402 11.5869C17.3757 11.6462 17.5195 11.6758 17.6719 11.6758C17.8073 11.6758 17.9427 11.6462 18.0781 11.5869C18.2135 11.5277 18.332 11.4473 18.4336 11.3457L21.3281 8.45117C21.4297 8.36654 21.5143 8.25228 21.582 8.1084C21.6497 7.96452 21.6836 7.81641 21.6836 7.66406C21.6836 7.51172 21.654 7.36784 21.5947 7.23242C21.5355 7.09701 21.4551 6.98698 21.3535 6.90234Z" fill="#5EB9F0"/>
</svg>
